<?xml version="1.0" encoding="UTF-8" standalone="no"?>
<svg
   xmlns:dc="http://purl.org/dc/elements/1.1/"
   xmlns:cc="http://creativecommons.org/ns#"
   xmlns:rdf="http://www.w3.org/1999/02/22-rdf-syntax-ns#"
   xmlns:svg="http://www.w3.org/2000/svg"
   xmlns="http://www.w3.org/2000/svg"
   xmlns:sodipodi="http://sodipodi.sourceforge.net/DTD/sodipodi-0.dtd"
   xmlns:inkscape="http://www.inkscape.org/namespaces/inkscape"
   version="1.0"
   width="683.000000pt"
   height="365.000000pt"
   viewBox="0 0 683.000000 365.000000"
   preserveAspectRatio="xMidYMid meet"
   id="svg44"
   sodipodi:docname="k-ff9e5eff.svg"
   inkscape:version="0.92.4 (5da689c313, 2019-01-14)">
  <defs
     id="defs48" />
  <sodipodi:namedview
     pagecolor="#ffffff"
     bordercolor="#666666"
     borderopacity="1"
     objecttolerance="10"
     gridtolerance="10"
     guidetolerance="10"
     inkscape:pageopacity="0"
     inkscape:pageshadow="2"
     inkscape:window-width="1613"
     inkscape:window-height="1089"
     id="namedview46"
     showgrid="false"
     inkscape:zoom="0.96986301"
     inkscape:cx="472.91367"
     inkscape:cy="352.31113"
     inkscape:window-x="2151"
     inkscape:window-y="0"
     inkscape:window-maximized="0"
     inkscape:current-layer="svg44" />
  <metadata
     id="metadata2">
Created by potrace 1.10, written by Peter Selinger 2001-2011
<rdf:RDF>
  <cc:Work
     rdf:about="">
    <dc:format>image/svg+xml</dc:format>
    <dc:type
       rdf:resource="http://purl.org/dc/dcmitype/StillImage" />
    <dc:title></dc:title>
  </cc:Work>
</rdf:RDF>
</metadata>
  <g
     transform="translate(0.000000,365.000000) scale(0.100000,-0.100000)"
     fill="#000000"
     stroke="none"
     id="g42"
     inkscape:export-xdpi="300"
     inkscape:export-ydpi="300">
    <path
       d="M301 3398 c-11 -31 25 -240 51 -290 5 -10 13 -18 19 -18 16 0 1 99 -21 137 -10 17 -22 53 -25 80 -4 26 -9 56 -12 66 -2 9 0 17 5 17 6 0 15 -24 22 -52 7 -29 18 -63 25 -74 10 -16 11 -24 2 -33 -8 -8 -7 -11 4 -11 9 0 24 -10 35 -21 27 -30 131 -75 252 -109 156 -44 373 -77 627 -94 127 -9 262 -21 301 -27 124 -18 294 -29 449 -29 388 -1 706 -51 743 -117 13 -22 4 -50 -52 -166 -58 -118 -84 -195 -92 -262 l-6 -52 -117 -17 c-120 -17 -236 -35 -701 -110 -151 -24 -324 -51 -385 -61 -60 -9 -113 -21 -116 -27 -3 -5 -2 -35 3 -66 10 -68 106 -560 114 -584 6 -21 51 -24 117 -8 23 5 94 19 157 30 63 12 135 25 160 30 56 11 132 24 280 50 63 11 140 25 170 30 303 55 660 119 840 150 30 5 102 19 160 30 58 11 130 25 160 30 30 5 89 16 130 25 41 8 143 26 225 40 225 39 244 42 325 59 41 8 94 18 117 21 98 15 89 39 -183 458 l-89 138 -50 -4 c-27 -3 -90 -12 -140 -21 -107 -18 -152 -26 -435 -71 -118 -19 -314 -50 -434 -70 -120 -19 -221 -33 -223 -31 -14 13 31 176 75 272 65 144 66 147 46 189 -33 71 -87 97 -264 129 -129 23 -285 35 -620 46 -168 5 -341 12 -385 15 -44 2 -123 7 -175 10 -417 24 -720 78 -886 157 -92 44 -130 83 -139 145 -11 78 -46 118 -64 71z m1749 -423 c124 -4 250 -8 280 -11 129 -13 336 -46 345 -56 7 -8 4 -9 -10 -4 -18 7 -166 28 -280 41 -22 3 -121 7 -220 10 -262 7 -416 14 -450 21 -57 10 -39 15 35 10 41 -3 176 -8 300 -11z m725 -105 c62 -38 63 -108 2 -212 -33 -57 -64 -145 -80 -224 l-14 -65 28 -15 c17 -8 40 -12 56 -8 24 5 231 41 343 60 19 3 67 9 105 14 39 5 111 16 160 25 50 8 103 15 119 15 15 0 34 4 41 10 6 5 29 9 51 9 21 -1 80 7 129 18 50 11 106 19 125 18 19 -1 38 3 41 8 4 5 29 12 56 14 l48 5 23 -46 c13 -25 27 -46 31 -46 4 0 18 -18 30 -41 26 -45 85 -138 99 -154 5 -6 11 -15 13 -20 2 -6 26 -43 52 -82 49 -74 82 -149 69 -157 -10 -6 -82 -20 -107 -20 -11 -1 -24 -4 -30 -7 -8 -6 -73 -18 -177 -34 -13 -2 -43 -9 -68 -15 -25 -6 -55 -9 -68 -7 -12 2 -25 1 -27 -3 -5 -7 -35 -14 -108 -25 -23 -4 -238 -42 -272 -49 -109 -22 -176 -35 -209 -40 -21 -4 -41 -8 -45 -10 -4 -3 -27 -7 -52 -10 -25 -3 -66 -10 -91 -15 -25 -6 -60 -13 -79 -15 -19 -3 -72 -12 -118 -20 -47 -7 -92 -11 -100 -8 -9 3 -12 1 -7 -6 5 -8 -5 -11 -33 -8 -22 2 -38 0 -36 -5 3 -4 -21 -10 -52 -14 -32 -4 -73 -11 -92 -15 -19 -5 -38 -7 -43 -4 -5 3 -15 1 -22 -5 -7 -6 -60 -18 -117 -27 -57 -8 -124 -19 -149 -23 -145 -28 -178 -33 -202 -32 -16 1 -28 -3 -28 -9 0 -6 -15 -11 -32 -10 -36 0 -69 -4 -108 -13 -86 -20 -157 -35 -170 -36 -8 0 -46 -7 -84 -14 -38 -7 -83 -11 -101 -9 -34 4 -41 16 -51 82 -2 14 -15 84 -29 155 -42 211 -45 228 -50 265 -2 19 -9 49 -14 67 -16 53 5 70 96 78 43 4 107 13 143 21 36 7 85 15 110 17 25 2 52 7 60 10 16 6 168 33 240 42 25 3 70 10 100 15 30 5 73 11 95 14 22 3 67 10 100 16 33 6 76 13 95 16 180 21 246 36 268 60 12 14 20 30 17 35 -12 19 29 149 82 256 78 161 80 202 11 236 -18 9 -27 17 -19 17 7 0 28 -9 46 -20z"
       id="path4" />
    <path
       d="M3971 2422 c8 -10 29 -39 48 -65 19 -25 39 -43 44 -40 5 3 3 9 -5 14 -8 4 -30 31 -49 58 -18 28 -38 51 -43 51 -5 0 -2 -8 5 -18z"
       id="path6" />
    <path
       d="M3798 2412 c-16 -6 -16 -9 3 -39 12 -18 28 -33 37 -33 13 0 13 2 -1 18 -19 21 -22 42 -7 42 6 0 10 5 10 10 0 11 -17 12 -42 2z"
       id="path8" />
    <path
       d="M3140 2370 c-8 -19 -20 -30 -32 -30 -31 0 -32 -28 -3 -88 16 -31 48 -99 72 -150 61 -129 63 -130 152 -121 40 4 120 17 179 28 59 10 163 29 232 41 222 40 373 70 378 75 8 7 -17 85 -27 85 -5 0 -5 -15 -1 -34 7 -33 6 -36 -23 -45 -16 -6 -41 -11 -55 -11 -14 0 -59 -7 -101 -14 -82 -16 -222 -41 -421 -76 -69 -12 -145 -25 -169 -30 -24 -4 -50 -6 -57 -3 -7 2 -40 62 -74 131 -34 70 -65 135 -71 144 -15 28 -11 42 21 68 17 14 30 33 30 42 0 28 -16 21 -30 -12z"
       id="path10" />
    <path
       d="M3600 2380 c0 -11 4 -20 8 -20 5 0 15 -11 22 -24 13 -25 38 -41 48 -31 3 3 -5 16 -17 29 -13 14 -20 29 -16 35 3 6 -1 11 -9 11 -9 0 -16 5 -16 10 0 6 -4 10 -10 10 -5 0 -10 -9 -10 -20z"
       id="path12" />
    <path
       d="M3688 2386 c-25 -18 -22 -33 7 -52 30 -19 95 -12 95 11 0 8 -4 15 -10 15 -5 0 -10 -4 -10 -9 0 -19 -41 -23 -60 -6 -24 22 -17 35 18 35 26 -1 26 -1 8 -15 -23 -18 -17 -19 20 -5 26 10 26 11 8 25 -24 18 -54 18 -76 1z"
       id="path14" />
    <path
       d="M3390 2373 c-56 -6 -64 -11 -50 -28 7 -8 20 -29 29 -47 9 -17 19 -30 24 -30 4 1 30 2 58 2 36 0 49 4 47 12 -4 11 -44 13 -92 5 -6 -1 -12 6 -14 16 -3 15 0 18 16 13 10 -4 30 -2 43 3 27 11 20 14 -33 11 -56 -2 -72 14 -19 20 25 3 46 11 49 18 2 6 -2 11 -10 10 -7 0 -29 -3 -48 -5z"
       id="path16" />
    <path
       d="M3525 2359 c-4 -6 -13 -8 -21 -5 -19 7 -18 -3 6 -42 11 -18 25 -30 31 -27 7 5 4 13 -6 25 -9 10 -14 24 -10 29 11 19 33 12 55 -19 21 -29 40 -39 40 -21 0 5 -13 23 -29 40 -30 32 -55 39 -66 20z"
       id="path18" />
    <path
       d="M3170 2345 c0 -2 13 -26 28 -52 16 -27 27 -54 24 -61 -2 -7 2 -11 8 -10 7 2 21 -19 30 -47 16 -44 19 -46 19 -20 0 17 -10 48 -24 70 -14 22 -33 57 -42 77 -15 31 -43 59 -43 43z"
       id="path20" />
    <path
       d="M2860 2295 c0 -4 22 -51 49 -105 48 -95 100 -235 90 -244 -3 -3 -427 -78 -530 -93 -34 -5 -37 -3 -57 39 -11 24 -28 69 -37 99 -9 30 -28 83 -41 118 -19 49 -22 66 -13 77 14 17 6 29 -16 21 -20 -8 -19 -36 6 -105 11 -31 31 -89 44 -128 13 -39 32 -87 41 -107 16 -34 21 -37 60 -37 23 0 64 4 91 10 43 9 220 40 395 71 37 6 72 17 78 24 10 12 -12 99 -31 120 -5 5 -9 16 -9 25 0 24 -84 192 -103 209 -10 7 -17 10 -17 6z"
       id="path22" />
    <path
       d="M2346 2254 c-10 -25 -7 -56 4 -49 6 4 15 -7 21 -24 6 -17 15 -31 20 -31 5 0 9 -13 9 -30 0 -16 5 -30 10 -30 6 0 10 -10 10 -22 0 -13 7 -32 15 -42 8 -10 12 -23 8 -29 -3 -6 -1 -7 4 -4 13 8 -2 63 -41 150 -14 32 -28 73 -32 92 -7 37 -18 45 -28 19z"
       id="path24" />
    <path
       d="M4081 2244 c0 -11 3 -14 6 -6 3 7 2 16 -1 19 -3 4 -6 -2 -5 -13z"
       id="path26" />
    <path
       d="M2605 2220 c-21 -23 -13 -39 10 -20 13 11 17 7 30 -24 8 -20 20 -36 26 -36 6 0 9 6 6 13 -2 6 -10 29 -18 50 -15 42 -28 46 -54 17z"
       id="path28" />
    <path
       d="M2046 2180 c10 -19 24 -42 30 -50 12 -16 104 -297 104 -316 0 -7 -28 -17 -62 -23 -35 -6 -139 -25 -233 -41 -217 -39 -297 -51 -302 -46 -4 4 -23 82 -72 290 -6 23 -6 48 -1 62 10 25 4 30 -19 15 -12 -8 -13 -20 -4 -73 15 -86 39 -191 59 -260 17 -57 18 -58 54 -58 32 0 219 31 365 60 28 5 93 18 145 27 l95 18 -1 30 c-2 38 -90 316 -107 336 -6 8 -25 25 -41 39 l-29 25 19 -35z"
       id="path30" />
    <path
       d="M1527 2113 c-3 -5 -2 -15 2 -22 5 -7 11 -9 14 -4 3 5 2 15 -2 22 -5 7 -11 9 -14 4z"
       id="path32" />
    <path
       d="M1766 2094 c-22 -21 -20 -60 4 -84 24 -24 48 -25 78 -4 29 20 28 49 -3 79 -28 29 -57 32 -79 9z m62 -16 c15 -15 16 -54 2 -63 -19 -12 -50 6 -56 32 -9 36 28 57 54 31z"
       id="path34" />
    <path
       d="M3258 2075 c-6 -30 -3 -43 8 -33 3 4 4 19 2 35 l-3 28 -7 -30z"
       id="path36" />
    <path
       d="M2430 1953 c0 -22 2 -25 10 -13 13 20 13 40 0 40 -5 0 -10 -12 -10 -27z"
       id="path38" />
    <path
       d="M4420 2790 c-6 -11 -8 -20 -6 -20 3 0 10 9 16 20 6 11 8 20 6 20 -3 0 -10 -9 -16 -20z"
       id="path40" />
  </g>
  <path
     style="fill:#ff9e5e;stroke:none;stroke-width:0.72907901;fill-opacity:1"
     d="m 434.04358,221.81187 c -2.92697,-1.29129 -5.18586,-5.1701 -14.69013,-25.2249 -8.26455,-17.43888 -9.08626,-20.70174 -5.43326,-21.57439 2.71488,-0.64855 3.68616,-1.51678 5.35393,-4.78587 1.55573,-3.0495 2.84821,-3.63081 2.84821,-1.28102 0,0.82599 -1.68144,3.27967 -3.73653,5.45263 -2.42507,2.56415 -3.73653,4.58409 -3.73653,5.75508 0,1.89649 11.94009,26.8297 16.98455,35.46701 2.92884,5.01486 2.96686,5.04625 6.11254,5.04625 2.73552,0 49.31262,-7.99526 78.06262,-13.39995 5.21292,-0.97997 12.59484,-2.14835 16.40428,-2.5964 12.70616,-1.49444 14.17997,-2.37107 13.4918,-8.02505 -0.57954,-4.76144 0.35472,-4.36394 2.11206,0.89862 1.48352,4.44257 1.46475,5.43996 -0.11093,5.89544 -5.47656,1.58313 -53.17802,10.47196 -84.02636,15.65773 -21.30103,3.58081 -26.57767,4.06418 -29.63625,2.71482 z"
     id="path858"
     inkscape:connector-curvature="0"
     transform="scale(0.75)"
     inkscape:export-xdpi="300"
     inkscape:export-ydpi="300" />
  <path
     style="fill:#a0a0a0;stroke:none;stroke-width:0.72907901"
     d=""
     id="path860"
     inkscape:connector-curvature="0"
     transform="scale(0.75)" />
  <path
     style="fill:#ff9e5e;stroke:none;stroke-width:0.72907901;fill-opacity:1"
     d="m 209.04327,260.94827 c -1.5036,-1.67832 -4.34766,-11.63531 -7.44494,-26.06457 -4.46577,-20.8046 -4.62281,-23.48201 -1.44872,-24.70003 1.01277,-0.38863 1.10266,0.0593 0.68411,3.40926 -0.4024,3.22076 0.18978,6.67647 3.59149,20.95813 4.57515,19.20821 6.00631,24.74192 6.53582,25.27143 0.61923,0.61923 12.01659,-1.13506 44.10398,-6.78851 16.9882,-2.99314 32.03489,-5.92142 33.43708,-6.50729 2.4176,-1.01014 2.52376,-1.20212 2.05286,-3.71224 -1.28011,-6.82357 -12.10988,-37.76154 -14.93148,-42.65554 -1.65241,-2.86606 -2.83478,-5.38061 -2.6275,-5.58789 0.20728,-0.20728 1.96388,1.23231 3.90356,3.19908 3.37431,3.42146 3.73472,4.20597 8.3417,18.15754 4.98403,15.09344 8.56319,27.92162 8.56319,30.69162 0,1.04926 -0.56082,1.73054 -1.64043,1.99277 -4.45129,1.08117 -54.30567,10.20699 -64.42951,11.79379 -13.90367,2.17925 -17.14065,2.27319 -18.69121,0.54245 z"
     id="path862"
     inkscape:connector-curvature="0"
     transform="scale(0.75)"
     inkscape:export-xdpi="300"
     inkscape:export-ydpi="300" />
  <path
     style="fill:#ff9e5e;stroke:none;stroke-width:0.72907901;fill-opacity:1"
     d="m 191.5475,290.51937 c -2.02232,-1.50907 -16.87005,-77.61339 -16.43936,-84.26256 0.21804,-3.36627 0.26394,-3.42303 3.50179,-4.33004 4.75425,-1.33178 145.22487,-23.68418 168.41726,-26.79941 l 2.55177,-0.34276 -2.40965,1.08713 c -3.37578,1.523 -10.64447,2.96259 -23.6255,4.6791 -6.13133,0.81077 -12.7883,1.8041 -14.79327,2.20741 -3.84358,0.77316 -24.41161,3.92812 -45.2029,6.93373 -6.81689,0.98546 -18.46393,2.93494 -25.88231,4.33217 -16.09434,3.03133 -38.51784,6.64615 -48.11921,7.75716 -12.46593,1.44248 -14.16438,3.08786 -12.18098,11.80038 0.65887,2.89425 1.55528,7.39483 1.99203,10.00129 0.43674,2.60646 2.72424,14.74563 5.08332,26.97593 2.35908,12.2303 4.7932,25.02563 5.40916,28.43408 1.44139,7.97598 2.89799,9.47803 9.19131,9.47803 5.48877,0 23.756,-2.98221 38.49624,-6.28468 6.28588,-1.40831 14.21759,-2.74638 17.62603,-2.97349 3.40844,-0.2271 6.6893,-0.83128 7.29079,-1.34261 0.60149,-0.51134 4.10517,-1.292 7.78595,-1.7348 3.68079,-0.4428 10.89867,-1.593 16.03974,-2.55599 5.14107,-0.96299 12.95635,-2.28998 17.36728,-2.94887 11.67028,-1.74329 23.05923,-4.05472 25.15322,-5.10494 1.00249,-0.50279 2.20657,-0.77654 2.67576,-0.60833 1.14336,0.40991 23.47362,-3.31875 25.10539,-4.19205 0.70738,-0.37858 3.11219,-0.68833 5.34402,-0.68833 3.12094,0 4.05786,-0.25251 4.05786,-1.09362 0,-0.83487 0.91645,-1.09361 3.87353,-1.09361 3.73047,0 25.15997,-3.26412 36.00436,-5.48415 2.88565,-0.59074 8.13502,-1.53301 11.66526,-2.09394 3.53025,-0.56094 15.60503,-2.83642 26.83285,-5.05665 11.22781,-2.22023 28.12422,-5.37923 37.54757,-7.02002 9.42334,-1.64077 19.75804,-3.64498 22.96599,-4.45377 3.20794,-0.8088 7.84728,-1.6053 10.30963,-1.77001 2.46234,-0.16471 6.6198,-0.79642 9.23878,-1.4038 2.61899,-0.60739 9.79073,-1.94409 15.93722,-2.97044 6.14648,-1.02635 12.15968,-2.20575 13.36266,-2.62087 1.20298,-0.41512 5.30405,-1.22948 9.11349,-1.80969 3.80944,-0.58021 8.01162,-1.41174 9.33819,-1.84785 2.22094,-0.73014 2.37419,-0.97499 1.93514,-3.0919 -1.15411,-5.56452 -5.06878,-12.34195 -22.59447,-39.11745 -3.28083,-5.01242 -6.89381,-10.75391 -8.02882,-12.75888 -1.13502,-2.00497 -3.15891,-4.88526 -4.49755,-6.40066 -1.33863,-1.51539 -3.49238,-4.91748 -4.78611,-7.56021 l -2.35224,-4.80494 -5.72286,0.43446 c -3.14758,0.23895 -6.66747,0.90568 -7.82199,1.48163 -1.15452,0.57595 -4.64881,1.27421 -7.7651,1.55168 -3.11628,0.27747 -9.76704,1.30061 -14.77946,2.27364 -5.01242,0.97304 -11.73817,1.94603 -14.94612,2.16221 -3.20795,0.21619 -7.14498,0.85353 -8.74895,1.41632 -1.60397,0.56278 -6.03313,1.36931 -9.84257,1.79228 -3.80943,0.42297 -10.69923,1.40233 -15.31066,2.17636 -4.61142,0.77403 -14.45399,2.24494 -21.87237,3.26869 -7.41838,1.02375 -23.59119,3.64184 -35.9396,5.81798 -21.02822,3.70576 -22.65973,3.89398 -25.73391,2.96879 -5.39115,-1.6225 -5.42892,-1.71031 -3.85766,-8.96763 2.42979,-11.22273 5.74915,-20.68842 10.92283,-31.14824 2.77677,-5.61391 5.34872,-11.84753 5.71544,-13.8525 1.35484,-7.40735 -1.45277,-13.07675 -8.17394,-16.50564 -4.89925,-2.499405 -5.72154,-1.23538 -1.12359,1.72717 8.16209,5.25897 7.97073,8.14904 -1.99427,30.11771 -6.75925,14.90134 -10.50991,25.67714 -11.02882,31.68636 -0.35842,4.15049 -1.99479,8.69156 -2.83077,7.85559 -0.15993,-0.15994 0.17538,-3.38724 0.74516,-7.17178 1.32482,-8.7997 4.77047,-18.63682 11.76935,-33.60081 6.62555,-14.16574 7.57793,-16.71331 7.57793,-20.27034 0,-4.0885 -2.50456,-6.02851 -11.93869,-9.24761 -14.64687,-4.997796 -50.40963,-8.995643 -80.65434,-9.016193 -6.61639,-0.0045 -19.24769,-0.346803 -28.06954,-0.760683 -15.0611,-0.706594 -21.87699,-1.301465 -45.2029,-3.945176 -5.21292,-0.590821 -18.1723,-1.742685 -28.79863,-2.559697 C 135.52892,84.124884 114.06339,81.070715 91.204359,75.143952 75.112025,70.971623 60.093915,64.781776 54.767773,60.126293 53.419998,58.948227 51.497846,57.67281 50.496325,57.292032 49.055378,56.744185 48.849401,56.390025 49.509286,55.594911 50.149625,54.82335 49.918292,53.514578 48.51269,49.956632 47.505912,47.408217 46.004121,42.94453 45.175376,40.037327 c -1.056837,-3.707338 -1.852223,-5.285823 -2.663483,-5.285823 -0.972459,0 -1.077459,0.609602 -0.65929,3.827665 0.945084,7.272994 2.558928,13.799176 4.414815,17.852969 2.408384,5.260603 4.579004,15.968709 3.463174,17.084538 -2.254213,2.254213 -6.520761,-11.94605 -8.714711,-29.004987 -1.169792,-9.095659 -1.166884,-9.656071 0.05982,-11.528262 0.709163,-1.082319 1.678583,-1.849067 2.154268,-1.703885 1.370632,0.418326 4.004062,6.179361 4.875623,10.66618 1.192714,6.140119 2.78056,9.248834 6.502067,12.729869 14.258997,13.337622 54.594381,23.18684 113.795171,27.786854 20.19374,1.569092 51.52485,3.146526 87.85402,4.423205 48.45666,1.702864 68.66656,3.170484 85.70656,6.223912 24.56232,4.401369 32.18317,8.334118 36.11867,18.639078 1.54044,4.0336 1.21307,5.29489 -5.18344,19.97037 -7.30786,16.7664 -13.35093,37.60085 -11.45585,39.49593 0.51168,0.51167 4.17203,0.25592 11.57559,-0.8088 10.70217,-1.53911 92.62509,-14.63654 130.03172,-20.78885 10.62633,-1.74772 21.61719,-3.38616 24.42415,-3.64099 l 5.10355,-0.46331 12.0298,18.7486 c 30.29617,47.21697 34.07181,54.50296 30.07451,58.03578 -1.41827,1.25347 -13.99328,3.74055 -59.96675,11.86016 -16.64123,2.9391 -44.28564,7.99921 -61.43204,11.2447 -17.14639,3.24548 -42.24493,7.84944 -55.77454,10.23102 -13.52961,2.38158 -41.00357,7.28219 -61.05324,10.89023 -20.04967,3.60805 -45.96843,8.23181 -57.59724,10.27504 -11.62881,2.04321 -33.4465,6.06053 -48.48376,8.92737 -28.58625,5.44995 -36.61839,6.44157 -38.82704,4.79348 z M 357.06078,99.457268 c -0.44388,-1.371155 -7.95854,-3.028125 -25.34425,-5.588365 -17.50038,-2.577127 -28.57518,-3.341562 -64.15896,-4.428555 -13.43328,-0.410352 -28.77128,-0.958001 -34.08444,-1.216997 -6.62452,-0.32292 -9.6603,-0.227633 -9.6603,0.303216 0,1.889648 11.04016,2.726114 55.41001,4.198182 18.2452,0.605325 36.45395,1.443647 40.46388,1.862937 10.01812,1.047523 31.60083,4.195088 34.26672,4.997366 3.0661,0.922718 3.4424,0.907248 3.10734,-0.127784 z"
     id="path864"
     inkscape:connector-curvature="0"
     transform="scale(0.75)"
     inkscape:export-xdpi="300"
     inkscape:export-ydpi="300" />
  <path
     style="fill:#ff9e5e;stroke:none;stroke-width:0.72907901;fill-opacity:1"
     d="m 323.12593,241.82467 c -1.03485,-0.44426 -2.43858,-2.44355 -3.71134,-5.2859 -2.47119,-5.51874 -12.14579,-33.23796 -13.0919,-37.51031 -0.77658,-3.50682 0.20051,-6.26325 2.36815,-6.6807 1.13728,-0.21901 1.26692,0.0204 0.7862,1.4517 -1.15281,3.43242 -0.51089,6.3668 4.68117,21.3991 6.0617,17.5501 8.97973,24.14856 10.95667,24.77602 2.23157,0.70827 73.34026,-11.48952 74.73834,-12.82042 1.5089,-1.43638 -3.75541,-16.02664 -12.06029,-33.42564 -5.47218,-11.46441 -6.57909,-14.8926 -3.5398,-10.96308 2.35512,3.04496 11.47404,21.96478 12.72648,26.40475 0.64831,2.2983 1.48092,4.36548 1.85026,4.59374 1.13507,0.70152 3.72345,10.27128 3.47614,12.85202 l -0.23336,2.43511 -6.92625,1.63836 c -10.01043,2.36788 -59.2353,11.01967 -65.25257,11.46881 -2.80695,0.20952 -5.85251,0.0594 -6.7679,-0.33356 z"
     id="path866"
     inkscape:connector-curvature="0"
     transform="scale(0.75)"
     inkscape:export-xdpi="300"
     inkscape:export-ydpi="300" />
  <path
     style="fill:#ff9e5e;stroke:none;stroke-width:0.72907901;fill-opacity:1"
     d="m 318.43864,198.98103 c -0.6147,-0.7042 -1.67357,-2.47816 -2.35305,-3.94213 -0.67949,-1.46397 -1.90068,-2.83574 -2.71377,-3.04836 -1.25509,-0.32822 -1.39985,-0.75202 -0.95859,-2.80633 0.56419,-2.62657 1.76074,-5.2592 2.1936,-4.82633 0.39505,0.39504 5.30924,15.49636 5.11446,15.71676 -0.0908,0.10271 -0.66795,-0.38942 -1.28265,-1.09361 z"
     id="path868"
     inkscape:connector-curvature="0"
     transform="scale(0.75)"
     inkscape:export-xdpi="300"
     inkscape:export-ydpi="300" />
  <path
     style="fill:#ff9e5e;stroke:none;stroke-width:0.72907901;fill-opacity:1"
     d="m 236.49881,218.18779 c -3.19315,-3.19315 -3.48235,-7.52012 -0.68931,-10.31316 2.86198,-2.86198 6.2909,-2.45804 9.91724,1.1683 2.53901,2.53901 2.92616,3.33579 2.73404,5.62691 -0.17577,2.09629 -0.75542,3.02611 -2.70113,4.33293 -3.57801,2.40316 -6.28054,2.16533 -9.26084,-0.81498 z m 8.43166,-1.1186 c 2.72911,-5.09939 -2.47422,-11.39965 -6.9778,-8.4488 -2.42542,1.5892 -2.4034,5.622 0.0441,8.06947 2.22075,2.22074 5.84222,2.41887 6.93374,0.37933 z"
     id="path870"
     inkscape:connector-curvature="0"
     transform="scale(0.75)"
     inkscape:export-xdpi="300"
     inkscape:export-ydpi="300" />
  <path
     style="fill:#a0a0a0;stroke:none;stroke-width:0.3645395"
     d=""
     id="path872"
     inkscape:connector-curvature="0"
     transform="scale(0.75)" />
  <path
     style="fill:#a0a0a0;stroke:none;stroke-width:0.3645395"
     d=""
     id="path874"
     inkscape:connector-curvature="0"
     transform="scale(0.75)" />
  <path
     style="fill:#ff9e5e;stroke:none;stroke-width:0.06444209;fill-opacity:1"
     d="m 239.95174,221.02187 c -1.32696,-0.28417 -2.73383,-1.16156 -4.02763,-2.51179 -1.60152,-1.67138 -2.4488,-3.74188 -2.4488,-5.98411 0,-2.1137 0.71917,-3.81493 2.21228,-5.23323 0.86838,-0.82488 1.83684,-1.39998 2.8142,-1.67114 0.64397,-0.17867 2.05221,-0.16529 2.75487,0.0262 1.62657,0.44322 3.03968,1.36208 4.78433,3.11097 2.09613,2.10123 3.09948,3.97297 3.10757,5.79714 0.006,1.40407 -0.47401,2.50329 -1.58727,3.63311 -1.23277,1.25111 -3.4932,2.49683 -5.1526,2.83959 -0.61231,0.12648 -1.85082,0.12309 -2.45695,-0.007 z m 2.73822,-0.54058 c 1.42118,-0.34045 3.30854,-1.42926 4.4544,-2.56971 0.88402,-0.87985 1.21034,-1.69576 1.34695,-3.3679 0.1553,-1.90078 -0.19778,-2.78244 -1.83315,-4.57745 -1.396,-1.53227 -2.78553,-2.66753 -3.99985,-3.2679 -1.07984,-0.53388 -1.7696,-0.71091 -2.77101,-0.71117 -1.30475,-3.3e-4 -2.40211,0.42302 -3.53881,1.36527 -3.18886,2.64332 -3.3062,6.9834 -0.28143,10.40928 1.40419,1.5904 3.04173,2.61098 4.58162,2.85544 0.48419,0.0769 1.4107,0.0152 2.04128,-0.13586 z"
     id="path878"
     inkscape:connector-curvature="0"
     transform="scale(0.75)"
     inkscape:export-xdpi="300"
     inkscape:export-ydpi="300" />
  <path
     style="fill:#ff9e5e;stroke:none;stroke-width:0.06444209;fill-opacity:1"
     d="m 244.84647,217.03691 c 0.36449,-0.97213 0.48627,-1.64855 0.48593,-2.6989 -6.5e-4,-1.88937 -0.5753,-3.66806 -1.50682,-4.66387 -2.23376,-2.3879 -5.72537,-2.10385 -7.02358,0.57137 -0.52637,1.08469 -0.61212,2.21002 -0.27089,3.55516 0.26228,1.03394 0.66473,1.78452 1.42305,2.65403 0.47552,0.54523 0.47168,0.67323 -0.004,0.14723 -0.77785,-0.8594 -1.32003,-1.8247 -1.58355,-2.81934 -0.19261,-0.72699 -0.21102,-2.13399 -0.0363,-2.77101 0.32249,-1.17557 1.08437,-2.12442 2.10741,-2.6246 0.71037,-0.3473 1.20684,-0.46885 1.91034,-0.46767 1.25775,0.002 2.36072,0.49059 3.36578,1.49066 1.88316,1.8738 2.45019,4.74385 1.41744,7.17435 -0.10577,0.24892 -0.22391,0.48159 -0.26254,0.51703 -0.0497,0.0457 -0.0561,0.0269 -0.0219,-0.0644 z"
     id="path880"
     inkscape:connector-curvature="0"
     transform="scale(0.75)"
     inkscape:export-xdpi="300"
     inkscape:export-ydpi="300" />
  <path
     style="fill:#ff9e5e;stroke:none;stroke-width:0.06444209;fill-opacity:1"
     d="m 214.07824,262.40506 c 0,-0.20882 0.0122,-0.22009 0.27388,-0.25269 0.15063,-0.0188 0.56387,-0.0514 0.9183,-0.0725 2.44046,-0.14549 8.9233,-1.04556 15.53054,-2.15625 15.27551,-2.56784 59.09542,-10.63865 61.4436,-11.31675 0.9287,-0.26819 1.41285,-0.7706 1.54905,-1.60745 0.35315,-2.1698 -3.41238,-15.68693 -9.33414,-33.50678 -3.07334,-9.24834 -3.95717,-11.40666 -5.53518,-13.51691 -0.56948,-0.76156 -3.4423,-3.67728 -4.39937,-4.46507 -0.66576,-0.548 -1.32261,-0.99622 -1.45994,-0.99622 -0.15237,0 -0.0964,0.37825 0.1465,0.99086 0.28726,0.72436 1.33315,2.80247 1.99865,3.97118 0.54786,0.96213 1.40722,2.69777 1.35941,2.74558 -0.0621,0.0621 -1.44563,-2.15031 -2.54294,-4.06664 -0.56064,-0.97909 -3.47434,-6.34217 -3.54339,-6.52212 -0.0955,-0.24889 5.91675,5.03144 7.59865,6.67359 1.29977,1.26905 1.67414,1.74455 2.13856,2.7162 3.05248,6.38641 11.93742,34.37053 13.41447,42.25041 0.12723,0.67873 0.18112,1.24217 0.22413,2.34352 0.0312,0.79747 0.0707,1.80351 0.0879,2.23565 l 0.0313,0.7857 -0.3342,0.0669 c -1.29606,0.25923 -12.64979,2.39012 -14.2859,2.6812 -2.85915,0.50868 -12.34542,2.29396 -18.68821,3.51705 -7.01851,1.3534 -8.9368,1.71406 -13.82283,2.59886 -14.96256,2.70954 -26.29694,4.48718 -32.4627,5.09133 l -0.3061,0.03 z"
     id="path882"
     inkscape:connector-curvature="0"
     transform="scale(0.75)"
     inkscape:export-xdpi="300"
     inkscape:export-ydpi="300" />
  <path
     style="fill:#ff9e5e;stroke:none;stroke-width:0.12888418;fill-opacity:1"
     d="m 355.44496,200.86464 c -0.87789,-0.7387 -1.91143,-2.42115 -2.83724,-4.61859 -1.60954,-3.82035 -2.13089,-4.24988 -3.75807,-3.09624 -2.0799,1.47462 -3.073,1.61392 -3.06801,0.43036 0.003,-0.74191 1.18587,-2.57696 2.40448,-3.73062 1.32904,-1.2582 2.29812,-1.74262 3.14664,-1.57292 0.56985,0.11397 1.48461,1.04541 2.01816,2.05496 0.81923,1.55011 3.64239,9.3187 3.64239,10.02291 0,0.84822 -0.82395,1.11968 -1.54835,0.51014 z"
     id="path884"
     inkscape:connector-curvature="0"
     transform="scale(0.75)"
     inkscape:export-xdpi="300"
     inkscape:export-ydpi="300" />
  <path
     style="fill:#ff9e5e;stroke:none;stroke-width:0.12888418;fill-opacity:1"
     d="m 325.67445,220.85445 c 0,-0.11099 0.0628,-0.3192 0.13963,-0.46269 0.20471,-0.3825 0.17039,-1.30271 -0.0763,-2.04537 -0.11875,-0.35752 -0.56369,-1.17438 -0.98876,-1.81525 -1.3032,-1.96481 -1.8414,-3.46974 -2.03668,-5.69504 -0.15823,-1.80311 -0.4592,-2.48681 -1.25809,-2.85791 -0.88495,-0.41108 -1.23494,-1.42123 -1.38559,-3.99909 -0.0932,-1.59439 -0.25944,-2.60104 -0.55026,-3.33154 -0.1517,-0.38104 -0.32337,-0.55004 -0.74027,-0.72874 -0.68302,-0.29278 -1.52659,-1.51286 -2.2606,-3.26953 -0.66576,-1.59336 -0.64449,-1.82235 0.0494,-0.53213 0.94085,1.74935 1.6005,2.70377 2.36952,3.42836 0.94345,0.88895 0.98424,0.74025 0.36261,-1.32183 -0.2575,-0.85417 -0.45062,-1.60571 -0.42917,-1.67007 0.0214,-0.0644 0.36921,0.71382 0.77279,1.7293 0.40358,1.01548 1.17868,2.85754 1.72244,4.09346 2.84106,6.45752 4.77119,12.00155 5.2892,15.19259 0.21399,1.31817 0.22331,1.84407 0.0441,2.48927 -0.20189,0.72698 -1.02407,1.36622 -1.02407,0.79621 z"
     id="path886"
     inkscape:connector-curvature="0"
     transform="scale(0.75)"
     inkscape:export-xdpi="300"
     inkscape:export-ydpi="300" />
  <path
     style="fill:#ff9e5e;stroke:none;stroke-width:0.12888418;fill-opacity:1"
     d="m 324.26365,228.67335 c -0.19719,-0.36845 -0.19812,-3.39869 -10e-4,-4.20167 0.21559,-0.87949 0.63318,-1.60473 0.97314,-1.69006 0.72451,-0.18184 1.34114,0.5788 1.34114,1.65435 0,1.05876 -1.0572,3.46659 -1.84599,4.20434 l -0.323,0.30211 z"
     id="path888"
     inkscape:connector-curvature="0"
     transform="scale(0.75)"
     inkscape:export-xdpi="300"
     inkscape:export-ydpi="300" />
  <path
     style="fill:#ff9e5e;stroke:none;stroke-width:0.12888418;fill-opacity:1"
     d="m 436.5116,201.04698 c -0.27321,-0.44489 -1.19595,-2.75441 -1.99538,-4.99426 -0.86388,-2.42038 -2.28344,-4.93574 -3.08013,-5.45775 -0.17892,-0.11724 -0.53298,-0.21315 -0.7868,-0.21315 -0.31655,0 -0.5596,-0.0981 -0.7739,-0.31242 -0.28659,-0.28659 -0.30596,-0.38155 -0.23434,-1.14857 0.0653,-0.69967 0.0207,-1.01155 -0.27363,-1.91083 -0.49029,-1.49811 -1.82539,-4.21606 -3.59845,-7.32557 -2.03691,-3.57227 -3.10967,-5.70243 -3.00678,-5.97054 0.22655,-0.59039 1.35277,0.0823 2.61984,1.5649 1.288,1.50705 2.10975,2.82479 3.47121,5.5663 1.36612,2.7509 3.3731,6.40557 4.67092,8.50565 2.08454,3.37312 3.37574,6.82832 3.58912,9.60438 0.0887,1.15414 -0.0317,2.51074 -0.22295,2.51074 -0.0668,0 -0.23726,-0.1885 -0.37873,-0.41888 z"
     id="path890"
     inkscape:connector-curvature="0"
     transform="scale(0.75)"
     inkscape:export-xdpi="300"
     inkscape:export-ydpi="300" />
  <path
     style="fill:#ff9e5e;stroke:none;stroke-width:0.12888418;fill-opacity:1"
     d="m 434.27493,214.45448 c -0.41792,-0.59666 -0.1721,-2.98382 0.67957,-6.59923 l 0.36206,-1.53699 0.21866,2.11697 c 0.24549,2.37683 0.27987,4.7121 0.0799,5.43193 -0.22468,0.809 -0.95944,1.13099 -1.34024,0.58732 z"
     id="path892"
     inkscape:connector-curvature="0"
     transform="scale(0.75)"
     inkscape:export-xdpi="300"
     inkscape:export-ydpi="300" />
  <path
     style="fill:#ff9e5e;stroke:none;stroke-width:0.12888418;fill-opacity:1"
     d="m 451.62818,183.70548 c -0.71375,-0.71375 -1.62451,-2.09649 -2.72846,-4.1424 -1.2435,-2.30456 -2.17218,-3.80142 -3.31316,-5.34022 -1.97081,-2.65799 -1.35435,-2.99278 7.36926,-4.00216 5.73904,-0.66404 5.98193,-0.67676 6.41199,-0.33591 0.46319,0.36711 0.47466,0.927 0.0281,1.37351 -0.77106,0.77106 -3.22195,1.57845 -6.03001,1.98644 -3.01108,0.4375 -4.3181,0.83153 -4.52217,1.36331 -0.13217,0.34444 0.37659,0.77187 1.18877,0.99873 1.3239,0.3698 3.11051,0.47405 7.52322,0.43897 4.63843,-0.0369 4.98683,0.006 4.26505,0.51952 -1.12719,0.80263 -3.42464,1.45332 -5.24936,1.48674 -0.87201,0.016 -1.48582,-0.0594 -2.42927,-0.29825 -1.16236,-0.29429 -1.29006,-0.30396 -1.61105,-0.122 -0.33118,0.18773 -0.34827,0.24561 -0.34161,1.15736 0.009,1.17915 0.31826,2.04697 0.91833,2.57385 0.51015,0.44791 0.71729,0.46329 2.62876,0.19513 4.99134,-0.70024 9.28573,-0.45992 10.32336,0.57771 0.32311,0.32311 0.34912,0.40512 0.21906,0.69058 -0.15844,0.34774 -0.80144,0.65997 -1.779,0.86385 -0.32398,0.0676 -2.87998,0.17718 -5.67999,0.24358 -2.8,0.0664 -5.4473,0.15851 -5.88288,0.2047 l -0.79197,0.084 z"
     id="path894"
     inkscape:connector-curvature="0"
     transform="scale(0.75)"
     inkscape:export-xdpi="300"
     inkscape:export-ydpi="300" />
  <path
     style="fill:#ff9e5e;stroke:none;stroke-width:0.12888418;fill-opacity:1"
     d="m 470.96024,181.63739 c -1.16661,-0.74712 -2.68671,-2.71917 -4.13807,-5.36839 -0.93461,-1.70597 -1.2877,-2.5937 -1.24358,-3.12653 0.0349,-0.42135 0.0857,-0.48748 0.4025,-0.52379 0.19941,-0.0229 0.63023,0.0496 0.95737,0.1611 0.74614,0.25424 1.86634,0.26115 2.34339,0.0145 0.20019,-0.10352 0.61573,-0.48891 0.92343,-0.85642 0.61525,-0.73485 1.34699,-1.13921 2.06943,-1.14356 1.25201,-0.008 3.1713,0.9881 4.93537,2.56024 1.76947,1.57696 4.41352,4.71696 5.08163,6.03482 0.49544,0.97727 0.28511,1.84173 -0.44811,1.84173 -0.89927,0 -2.52506,-1.41157 -4.28522,-3.72057 -1.53071,-2.00801 -2.69611,-3.14006 -3.80524,-3.69635 -1.50484,-0.75475 -2.64638,-0.568 -3.527,0.577 -0.32608,0.42398 -0.41887,0.66982 -0.41887,1.10976 0,0.78997 0.41171,1.79318 1.10864,2.70138 1.2192,1.58879 1.59792,2.26083 1.59792,2.83546 0,0.58864 -0.28389,0.96662 -0.726,0.96662 -0.14003,0 -0.51245,-0.16512 -0.82759,-0.36695 z"
     id="path896"
     inkscape:connector-curvature="0"
     transform="scale(0.75)"
     inkscape:export-xdpi="300"
     inkscape:export-ydpi="300" />
  <path
     style="fill:#ff9e5e;stroke:none;stroke-width:0.12888418;fill-opacity:1"
     d="m 488.35468,179.4408 c -1.46195,-0.57198 -3.02285,-2.11673 -4.25963,-4.21553 -0.92713,-1.57333 -2.28517,-3.1224 -2.83349,-3.23206 -0.7196,-0.14392 -1.14398,-1.08677 -1.14284,-2.53906 9.4e-4,-1.20755 0.19135,-1.84491 0.70442,-2.35798 0.38357,-0.38357 0.45937,-0.40992 0.85668,-0.29782 0.54196,0.15292 0.88698,0.55689 0.88698,1.03853 0,0.78576 1.07665,1.53605 2.20598,1.5373 0.23988,2.7e-4 0.63066,0.11906 0.86839,0.264 0.39878,0.24312 0.42584,0.30047 0.34949,0.74061 -0.24033,1.38536 -0.23796,1.41825 0.16359,2.27635 0.49381,1.05524 0.94937,1.71721 2.10561,3.0596 1.1425,1.32645 2.00872,2.61772 2.11551,3.15361 0.0721,0.36166 0.0363,0.43163 -0.31289,0.6122 -0.50423,0.26075 -0.96729,0.24997 -1.7078,-0.0397 z"
     id="path898"
     inkscape:connector-curvature="0"
     transform="scale(0.75)"
     inkscape:export-xdpi="300"
     inkscape:export-ydpi="300" />
  <path
     style="fill:#ff9e5e;stroke:none;stroke-width:0.12888418;fill-opacity:1"
     d="m 496.93739,176.77037 c -0.99721,-0.14576 -2.38825,-0.49272 -3.05639,-0.76234 -0.96045,-0.38759 -2.50975,-1.46466 -3.25898,-2.26565 -1.65716,-1.77164 -1.40207,-3.19799 0.88176,-4.93037 1.61498,-1.22504 2.91102,-1.73798 4.67126,-1.84876 2.14555,-0.13503 4.09797,0.54978 6.14227,2.15439 1.70385,1.33739 1.58433,1.57536 -1.37742,2.7424 -2.68042,1.05618 -4.58248,1.58332 -4.58248,1.26999 0,-0.13643 1.13302,-1.20458 1.9977,-1.88331 1.5387,-1.20781 1.82173,-1.65769 1.12774,-1.79252 -1.57011,-0.30504 -4.51362,-0.16763 -5.58408,0.26068 -1.65151,0.6608 -1.48642,2.16798 0.43952,4.01266 1.36195,1.30449 2.74542,1.77556 4.93032,1.67878 2.07256,-0.0918 3.19063,-0.74451 3.41789,-1.9953 0.26973,-1.48448 1.74022,-1.80322 2.35379,-0.51021 0.54357,1.14549 0.10917,2.20486 -1.18751,2.89599 -1.26673,0.67516 -2.52346,0.94186 -4.65992,0.98892 -1.02785,0.0226 -2.04282,0.0157 -2.25547,-0.0153 z"
     id="path900"
     inkscape:connector-curvature="0"
     transform="scale(0.75)"
     inkscape:export-xdpi="300"
     inkscape:export-ydpi="300" />
  <path
     style="fill:#ff9e5e;stroke:none;stroke-width:0.12888418;fill-opacity:1"
     d="m 510.96974,174.35322 c -1.65451,-0.78367 -4.09023,-3.67426 -5.56058,-6.599 -0.8046,-1.60048 -0.66599,-1.95925 1.01334,-2.62286 3.42843,-1.35479 5.77465,-1.16262 5.47246,0.44824 -0.10385,0.55354 -0.57713,0.92204 -1.32903,1.0348 -0.36992,0.0555 -0.71326,0.20747 -0.90758,0.40179 -0.27935,0.27935 -0.30704,0.39945 -0.26052,1.13004 0.0736,1.15505 0.83275,2.61777 2.1757,4.1918 1.11863,1.31111 1.4965,1.90075 1.32424,2.06635 -0.0592,0.0569 -0.36862,0.13907 -0.68761,0.18257 -0.45892,0.0626 -0.71783,0.0138 -1.24042,-0.23373 z"
     id="path902"
     inkscape:connector-curvature="0"
     transform="scale(0.75)"
     inkscape:export-xdpi="300"
     inkscape:export-ydpi="300" />
  <path
     style="fill:#ff9e5e;stroke:none;stroke-width:0.12888418;fill-opacity:1"
     d="m 540.60527,177.24226 c -1.45771,-0.97342 -3.57264,-3.34245 -6.16164,-6.90193 -0.77339,-1.0633 -2.28611,-3.12222 -3.36161,-4.57539 -2.03948,-2.75567 -2.50357,-3.5073 -2.50357,-4.05472 0,-0.53357 0.34253,-0.39414 1.29817,0.52845 1.04175,1.00573 2.44776,2.78176 4.11802,5.20176 2.46224,3.56749 5.15538,6.92147 6.37267,7.93639 1.51252,1.26107 1.6151,1.37026 1.6151,1.71915 0,0.36418 -0.20529,0.6552 -0.46219,0.6552 -0.0841,0 -0.4958,-0.22901 -0.91495,-0.50891 z"
     id="path904"
     inkscape:connector-curvature="0"
     transform="scale(0.75)"
     inkscape:export-xdpi="300"
     inkscape:export-ydpi="300" />
  <path
     style="fill:#ff9e5e;stroke:none;stroke-width:0.12888418;fill-opacity:1"
     d="m 544.34983,188.67892 c -0.18108,-0.293 -0.21652,-2.27114 -0.048,-2.67804 0.20156,-0.48662 0.32853,-0.48827 0.57713,-0.008 0.2717,0.52542 0.24395,1.62964 -0.0577,2.2941 -0.2669,0.588 -0.32185,0.63362 -0.4715,0.39147 z"
     id="path906"
     inkscape:connector-curvature="0"
     transform="scale(0.75)"
     inkscape:export-xdpi="300"
     inkscape:export-ydpi="300" />
  <path
     style="fill:#ff9e5e;stroke:none;stroke-width:0.12888418;fill-opacity:1"
     d="m 435.26631,222.65872 c -2.41563,-0.52311 -4.28099,-2.23587 -6.3955,-5.87228 -1.22824,-2.11227 -2.61035,-4.91734 -7.07242,-14.35398 -2.17756,-4.60524 -5.0205,-10.54904 -6.31763,-13.20846 -2.42358,-4.96886 -3.31868,-7.04885 -3.80271,-8.83651 -0.34663,-1.28019 -0.47626,-3.19126 -0.26077,-3.84421 0.33548,-1.01652 1.34997,-1.7571 2.38981,-1.74458 l 0.51554,0.006 -0.66655,0.22729 c -0.97411,0.33217 -1.32371,0.60722 -1.61832,1.27323 -0.64068,1.44835 0.0851,4.25113 2.64396,10.20986 2.87482,6.6946 11.1513,23.86943 13.72603,28.4834 1.98829,3.56305 3.37369,5.43087 4.67051,6.29685 2.92301,1.95192 6.96242,1.72885 26.48271,-1.46244 25.82153,-4.22145 79.95183,-14.22133 87.31904,-16.13107 1.79524,-0.46537 2.06214,-0.71235 2.06214,-1.90824 0,-1.08065 -1.31667,-5.3513 -2.27607,-7.38248 -0.80269,-1.6994 -1.29718,-1.43778 -1.15359,0.61034 0.0423,0.60253 0.10521,1.5015 0.13993,1.9977 0.076,1.08621 -0.0637,0.65384 -0.38,-1.17609 -0.34161,-1.97644 -0.2511,-3.78595 0.18937,-3.78595 0.42933,0 1.56623,2.15142 2.38378,4.51095 1.01724,2.93588 1.63116,6.3139 1.21028,6.65956 -0.48218,0.396 -4.27166,1.26466 -13.96875,3.20205 -9.32995,1.86403 -28.2608,5.40666 -39.18079,7.33211 -1.41772,0.24998 -7.30451,1.29379 -13.08174,2.31959 -22.04902,3.91501 -25.2877,4.4741 -30.25247,5.22248 -9.42894,1.42129 -14.98851,1.85649 -17.30579,1.35467 z"
     id="path908"
     inkscape:connector-curvature="0"
     transform="scale(0.75)"
     inkscape:export-xdpi="300"
     inkscape:export-ydpi="300" />
</svg>
