<?xml version="1.0" standalone="no"?>
<!DOCTYPE svg PUBLIC "-//W3C//DTD SVG 20010904//EN"
 "http://www.w3.org/TR/2001/REC-SVG-20010904/DTD/svg10.dtd">
<svg version="1.0" xmlns="http://www.w3.org/2000/svg"
 width="683.000000pt" height="365.000000pt" viewBox="0 0 683.000000 365.000000"
 preserveAspectRatio="xMidYMid meet">
<metadata>
Created by potrace 1.10, written by Peter Selinger 2001-2011
</metadata>
<g transform="translate(0.000000,365.000000) scale(0.100000,-0.100000)"
fill="#000000" stroke="none">
<path d="M301 3398 c-11 -31 25 -240 51 -290 5 -10 13 -18 19 -18 16 0 1 99
-21 137 -10 17 -22 53 -25 80 -4 26 -9 56 -12 66 -2 9 0 17 5 17 6 0 15 -24
22 -52 7 -29 18 -63 25 -74 10 -16 11 -24 2 -33 -8 -8 -7 -11 4 -11 9 0 24
-10 35 -21 27 -30 131 -75 252 -109 156 -44 373 -77 627 -94 127 -9 262 -21
301 -27 124 -18 294 -29 449 -29 388 -1 706 -51 743 -117 13 -22 4 -50 -52
-166 -58 -118 -84 -195 -92 -262 l-6 -52 -117 -17 c-120 -17 -236 -35 -701
-110 -151 -24 -324 -51 -385 -61 -60 -9 -113 -21 -116 -27 -3 -5 -2 -35 3 -66
10 -68 106 -560 114 -584 6 -21 51 -24 117 -8 23 5 94 19 157 30 63 12 135 25
160 30 56 11 132 24 280 50 63 11 140 25 170 30 303 55 660 119 840 150 30 5
102 19 160 30 58 11 130 25 160 30 30 5 89 16 130 25 41 8 143 26 225 40 225
39 244 42 325 59 41 8 94 18 117 21 98 15 89 39 -183 458 l-89 138 -50 -4
c-27 -3 -90 -12 -140 -21 -107 -18 -152 -26 -435 -71 -118 -19 -314 -50 -434
-70 -120 -19 -221 -33 -223 -31 -14 13 31 176 75 272 65 144 66 147 46 189
-33 71 -87 97 -264 129 -129 23 -285 35 -620 46 -168 5 -341 12 -385 15 -44 2
-123 7 -175 10 -417 24 -720 78 -886 157 -92 44 -130 83 -139 145 -11 78 -46
118 -64 71z m1749 -423 c124 -4 250 -8 280 -11 129 -13 336 -46 345 -56 7 -8
4 -9 -10 -4 -18 7 -166 28 -280 41 -22 3 -121 7 -220 10 -262 7 -416 14 -450
21 -57 10 -39 15 35 10 41 -3 176 -8 300 -11z m725 -105 c62 -38 63 -108 2
-212 -33 -57 -64 -145 -80 -224 l-14 -65 28 -15 c17 -8 40 -12 56 -8 24 5 231
41 343 60 19 3 67 9 105 14 39 5 111 16 160 25 50 8 103 15 119 15 15 0 34 4
41 10 6 5 29 9 51 9 21 -1 80 7 129 18 50 11 106 19 125 18 19 -1 38 3 41 8 4
5 29 12 56 14 l48 5 23 -46 c13 -25 27 -46 31 -46 4 0 18 -18 30 -41 26 -45
85 -138 99 -154 5 -6 11 -15 13 -20 2 -6 26 -43 52 -82 49 -74 82 -149 69
-157 -10 -6 -82 -20 -107 -20 -11 -1 -24 -4 -30 -7 -8 -6 -73 -18 -177 -34
-13 -2 -43 -9 -68 -15 -25 -6 -55 -9 -68 -7 -12 2 -25 1 -27 -3 -5 -7 -35 -14
-108 -25 -23 -4 -238 -42 -272 -49 -109 -22 -176 -35 -209 -40 -21 -4 -41 -8
-45 -10 -4 -3 -27 -7 -52 -10 -25 -3 -66 -10 -91 -15 -25 -6 -60 -13 -79 -15
-19 -3 -72 -12 -118 -20 -47 -7 -92 -11 -100 -8 -9 3 -12 1 -7 -6 5 -8 -5 -11
-33 -8 -22 2 -38 0 -36 -5 3 -4 -21 -10 -52 -14 -32 -4 -73 -11 -92 -15 -19
-5 -38 -7 -43 -4 -5 3 -15 1 -22 -5 -7 -6 -60 -18 -117 -27 -57 -8 -124 -19
-149 -23 -145 -28 -178 -33 -202 -32 -16 1 -28 -3 -28 -9 0 -6 -15 -11 -32
-10 -36 0 -69 -4 -108 -13 -86 -20 -157 -35 -170 -36 -8 0 -46 -7 -84 -14 -38
-7 -83 -11 -101 -9 -34 4 -41 16 -51 82 -2 14 -15 84 -29 155 -42 211 -45 228
-50 265 -2 19 -9 49 -14 67 -16 53 5 70 96 78 43 4 107 13 143 21 36 7 85 15
110 17 25 2 52 7 60 10 16 6 168 33 240 42 25 3 70 10 100 15 30 5 73 11 95
14 22 3 67 10 100 16 33 6 76 13 95 16 180 21 246 36 268 60 12 14 20 30 17
35 -12 19 29 149 82 256 78 161 80 202 11 236 -18 9 -27 17 -19 17 7 0 28 -9
46 -20z"/>
<path d="M3971 2422 c8 -10 29 -39 48 -65 19 -25 39 -43 44 -40 5 3 3 9 -5 14
-8 4 -30 31 -49 58 -18 28 -38 51 -43 51 -5 0 -2 -8 5 -18z"/>
<path d="M3798 2412 c-16 -6 -16 -9 3 -39 12 -18 28 -33 37 -33 13 0 13 2 -1
18 -19 21 -22 42 -7 42 6 0 10 5 10 10 0 11 -17 12 -42 2z"/>
<path d="M3140 2370 c-8 -19 -20 -30 -32 -30 -31 0 -32 -28 -3 -88 16 -31 48
-99 72 -150 61 -129 63 -130 152 -121 40 4 120 17 179 28 59 10 163 29 232 41
222 40 373 70 378 75 8 7 -17 85 -27 85 -5 0 -5 -15 -1 -34 7 -33 6 -36 -23
-45 -16 -6 -41 -11 -55 -11 -14 0 -59 -7 -101 -14 -82 -16 -222 -41 -421 -76
-69 -12 -145 -25 -169 -30 -24 -4 -50 -6 -57 -3 -7 2 -40 62 -74 131 -34 70
-65 135 -71 144 -15 28 -11 42 21 68 17 14 30 33 30 42 0 28 -16 21 -30 -12z"/>
<path d="M3600 2380 c0 -11 4 -20 8 -20 5 0 15 -11 22 -24 13 -25 38 -41 48
-31 3 3 -5 16 -17 29 -13 14 -20 29 -16 35 3 6 -1 11 -9 11 -9 0 -16 5 -16 10
0 6 -4 10 -10 10 -5 0 -10 -9 -10 -20z"/>
<path d="M3688 2386 c-25 -18 -22 -33 7 -52 30 -19 95 -12 95 11 0 8 -4 15
-10 15 -5 0 -10 -4 -10 -9 0 -19 -41 -23 -60 -6 -24 22 -17 35 18 35 26 -1 26
-1 8 -15 -23 -18 -17 -19 20 -5 26 10 26 11 8 25 -24 18 -54 18 -76 1z"/>
<path d="M3390 2373 c-56 -6 -64 -11 -50 -28 7 -8 20 -29 29 -47 9 -17 19 -30
24 -30 4 1 30 2 58 2 36 0 49 4 47 12 -4 11 -44 13 -92 5 -6 -1 -12 6 -14 16
-3 15 0 18 16 13 10 -4 30 -2 43 3 27 11 20 14 -33 11 -56 -2 -72 14 -19 20
25 3 46 11 49 18 2 6 -2 11 -10 10 -7 0 -29 -3 -48 -5z"/>
<path d="M3525 2359 c-4 -6 -13 -8 -21 -5 -19 7 -18 -3 6 -42 11 -18 25 -30
31 -27 7 5 4 13 -6 25 -9 10 -14 24 -10 29 11 19 33 12 55 -19 21 -29 40 -39
40 -21 0 5 -13 23 -29 40 -30 32 -55 39 -66 20z"/>
<path d="M3170 2345 c0 -2 13 -26 28 -52 16 -27 27 -54 24 -61 -2 -7 2 -11 8
-10 7 2 21 -19 30 -47 16 -44 19 -46 19 -20 0 17 -10 48 -24 70 -14 22 -33 57
-42 77 -15 31 -43 59 -43 43z"/>
<path d="M2860 2295 c0 -4 22 -51 49 -105 48 -95 100 -235 90 -244 -3 -3 -427
-78 -530 -93 -34 -5 -37 -3 -57 39 -11 24 -28 69 -37 99 -9 30 -28 83 -41 118
-19 49 -22 66 -13 77 14 17 6 29 -16 21 -20 -8 -19 -36 6 -105 11 -31 31 -89
44 -128 13 -39 32 -87 41 -107 16 -34 21 -37 60 -37 23 0 64 4 91 10 43 9 220
40 395 71 37 6 72 17 78 24 10 12 -12 99 -31 120 -5 5 -9 16 -9 25 0 24 -84
192 -103 209 -10 7 -17 10 -17 6z"/>
<path d="M2346 2254 c-10 -25 -7 -56 4 -49 6 4 15 -7 21 -24 6 -17 15 -31 20
-31 5 0 9 -13 9 -30 0 -16 5 -30 10 -30 6 0 10 -10 10 -22 0 -13 7 -32 15 -42
8 -10 12 -23 8 -29 -3 -6 -1 -7 4 -4 13 8 -2 63 -41 150 -14 32 -28 73 -32 92
-7 37 -18 45 -28 19z"/>
<path d="M4081 2244 c0 -11 3 -14 6 -6 3 7 2 16 -1 19 -3 4 -6 -2 -5 -13z"/>
<path d="M2605 2220 c-21 -23 -13 -39 10 -20 13 11 17 7 30 -24 8 -20 20 -36
26 -36 6 0 9 6 6 13 -2 6 -10 29 -18 50 -15 42 -28 46 -54 17z"/>
<path d="M2046 2180 c10 -19 24 -42 30 -50 12 -16 104 -297 104 -316 0 -7 -28
-17 -62 -23 -35 -6 -139 -25 -233 -41 -217 -39 -297 -51 -302 -46 -4 4 -23 82
-72 290 -6 23 -6 48 -1 62 10 25 4 30 -19 15 -12 -8 -13 -20 -4 -73 15 -86 39
-191 59 -260 17 -57 18 -58 54 -58 32 0 219 31 365 60 28 5 93 18 145 27 l95
18 -1 30 c-2 38 -90 316 -107 336 -6 8 -25 25 -41 39 l-29 25 19 -35z"/>
<path d="M1527 2113 c-3 -5 -2 -15 2 -22 5 -7 11 -9 14 -4 3 5 2 15 -2 22 -5
7 -11 9 -14 4z"/>
<path d="M1766 2094 c-22 -21 -20 -60 4 -84 24 -24 48 -25 78 -4 29 20 28 49
-3 79 -28 29 -57 32 -79 9z m62 -16 c15 -15 16 -54 2 -63 -19 -12 -50 6 -56
32 -9 36 28 57 54 31z"/>
<path d="M3258 2075 c-6 -30 -3 -43 8 -33 3 4 4 19 2 35 l-3 28 -7 -30z"/>
<path d="M2430 1953 c0 -22 2 -25 10 -13 13 20 13 40 0 40 -5 0 -10 -12 -10
-27z"/>
<path d="M4420 2790 c-6 -11 -8 -20 -6 -20 3 0 10 9 16 20 6 11 8 20 6 20 -3
0 -10 -9 -16 -20z"/>
</g>
</svg>
